<?xml version="1.0" encoding="UTF-8" standalone="no"?>
<svg
   xmlns:dc="http://purl.org/dc/elements/1.1/"
   xmlns:cc="http://creativecommons.org/ns#"
   xmlns:rdf="http://www.w3.org/1999/02/22-rdf-syntax-ns#"
   xmlns:svg="http://www.w3.org/2000/svg"
   xmlns="http://www.w3.org/2000/svg"
   xmlns:sodipodi="http://sodipodi.sourceforge.net/DTD/sodipodi-0.dtd"
   xmlns:inkscape="http://www.inkscape.org/namespaces/inkscape"
   width="402.10068mm"
   height="205.2536mm"
   viewBox="0 0 402.1007 205.2536"
   version="1.1"
   id="svg805"
   inkscape:version="1.0.2 (e86c870879, 2021-01-15, custom)"
   sodipodi:docname="logo_no_text.svg">
  <defs
     id="defs799" />
  <sodipodi:namedview
     id="base"
     pagecolor="#ffffff"
     bordercolor="#666666"
     borderopacity="1.0"
     inkscape:pageopacity="0.0"
     inkscape:pageshadow="2"
     inkscape:zoom="0.35"
     inkscape:cx="682.73245"
     inkscape:cy="111.52527"
     inkscape:document-units="mm"
     inkscape:current-layer="layer1"
     inkscape:document-rotation="0"
     showgrid="false"
     inkscape:window-width="1920"
     inkscape:window-height="1017"
     inkscape:window-x="1912"
     inkscape:window-y="-8"
     inkscape:window-maximized="1" />
  <metadata
     id="metadata802">
    <rdf:RDF>
      <cc:Work
         rdf:about="">
        <dc:format>image/svg+xml</dc:format>
        <dc:type
           rdf:resource="http://purl.org/dc/dcmitype/StillImage" />
        <dc:title></dc:title>
      </cc:Work>
    </rdf:RDF>
  </metadata>
  <g
     inkscape:label="Layer 1"
     inkscape:groupmode="layer"
     id="layer1"
     transform="translate(105.04439,-27.944654)">
    <path
       d="M -460.71857,698.79768 H 597.61474 V -359.53564 H -460.71857 Z"
       style="display:none;fill:#574d4c;fill-opacity:1;fill-rule:nonzero;stroke:none;stroke-width:0.352778"
       id="path22" />
    <path
       d="m 192.38714,193.69526 -0.0508,2.29729 c 4.55718,0.38311 9.13094,-0.51541 13.20306,-2.59504 l -5.58518,-6.71795 c -1.21003,2.22991 -3.44523,4.80413 -7.56708,7.0157 z"
       style="fill:#ffe7c2;fill-opacity:1;fill-rule:nonzero;stroke:none;stroke-width:0.352778"
       id="path24" />
    <path
       d="m 192.58998,184.7601 c 1.72226,0.0208 3.43676,-0.25365 5.06695,-0.81033 l -6.3059,-7.62317 c 0.70979,4.72933 1.23895,8.4335 1.23895,8.4335 z"
       style="fill:#ffe7c2;fill-opacity:1;fill-rule:nonzero;stroke:none;stroke-width:0.352778"
       id="path26" />
    <path
       d="m -12.271949,233.1471 c 0.877711,-0.4258 1.732139,-0.90135 2.5562281,-1.42346 h -8.9697281 c 1.045987,-0.38453 2.058812,-0.85443 3.030362,-1.403 3.941233,-2.25142 4.227688,-4.57623 4.227688,-4.57623 -7.4041,1.73355 -13.597113,1.20438 -18.66406,-0.41204 -12.438239,-3.9744 -18.017772,-14.53163 -18.017772,-14.53163 6.451952,3.94124 12.387086,5.50122 17.481549,5.76051 11.46422,0.56198 18.817167,-5.33858 18.817167,-5.33858 -1.951214,-0.008 -3.884436,-0.37642 -5.703711,-1.08585 -2.167467,-0.8255 -4.158897,-2.05634 -5.866342,-3.62585 3.432881,-0.0385 6.804731,-0.91758 9.818511,-2.56152 -13.410847,-2.25319 -19.344922,-11.61556 -20.639969,-13.97494 -0.191558,-0.34996 -0.281164,-0.56339 -0.281164,-0.56339 1.125714,0.56339 2.200628,1.12572 3.248025,1.57621 9.925755,4.43195 16.530814,3.8227 20.353514,2.4945 1.1740439,-0.37924 2.2888217,-0.92075 3.3115245,-1.61114 v -0.7814 c -0.6201834,-0.0565 -1.2057945,-0.14746 -1.7737667,-0.2533 -1.3694828,-0.23989 -2.7103918,-0.61595 -4.0029698,-1.12606 -1.950155,-0.7426 -3.746852,-1.83833 -5.298722,-3.23286 2.561873,-2.13325 7.685264,-2.56187 7.685264,-2.56187 -7.25805,-3.41172 -11.102622,-10.69763 -11.102622,-10.69763 5.163256,3.09668 10.630253,3.3789 14.1552081,3.1309 l -0.051153,-2.29694 c -9.6558801,-5.18019 -9.0081801,-12.38744 -9.0081801,-12.38744 2.087739,2.78236 5.809897,3.42301 8.7767578,3.42865 0,0 2.8719639,-20.05471 4.1948805,-26.3331 l -27.5265433,38.07813 c -8.243358,0.94121 -14.97083,-4.94841 -14.97083,-4.94841 h 6.829424 c -5.197827,-2.56188 -5.523088,-5.97959 -5.523088,-5.97959 19.503319,5.97959 27.948113,-14.94331 27.948113,-14.94331 -15.921919,12.80901 -27.622852,0.42862 -27.622852,0.42862 5.197827,0 8.772525,-4.70182 8.772525,-4.70182 -2.691342,-0.0801 -5.297311,-0.97296 -7.471834,-2.56187 11.700933,-2.56187 15.923331,-14.51469 15.923331,-14.51469 -12.190236,8.35484 -18.546939,4.21675 -20.477692,2.40877 V 131.255 c 3.290711,-0.44661 6.2992,-2.09444 8.445853,-4.6288 -1.948392,-2.13889 -5.850819,-2.56187 -5.850819,-2.56187 5.529791,-3.41736 8.445852,-10.69763 8.445852,-10.69763 -3.04553,2.41441 -6.916561,3.5373 -10.781947,3.1309 l 0.03881,-2.286 c 7.360002,-5.18583 6.841772,-12.38744 6.841772,-12.38744 -1.588911,2.78236 -4.426303,3.42301 -6.683375,3.43006 0,0 -2.202039,-28.553125 -2.572808,-28.434592 -0.518231,-0.219075 -3.614561,28.191882 -3.614561,28.191882 -2.253192,0 -5.068359,-0.6477 -6.678083,-3.42829 0,0 -0.517878,7.18361 6.829777,12.38567 l 0.03845,2.29729 c -3.862564,0.40781 -7.732183,-0.7112 -10.781594,-3.11856 0,0 2.928055,7.25664 8.445852,10.69764 0,0 -3.90278,0.42721 -5.849761,2.56187 2.145595,2.534 5.155142,4.18218 8.444442,4.62739 v 0.77717 c -1.941336,1.81892 -8.298392,5.92984 -20.472047,-2.41547 0,0 4.223808,11.95987 15.92333,14.52174 -2.174522,1.58891 -4.77908,2.48179 -7.471833,2.56152 0,0 3.576108,4.69512 8.772525,4.69512 0,0 -11.699522,12.38708 -27.6225,-0.42722 0,0 8.445853,20.92819 27.949172,14.94896 0,0 -0.326672,3.41736 -5.523089,5.97923 h 6.846006 c 0,0 -9.752189,8.51923 -20.140083,3.38879 0,0 3.90278,8.54251 16.250002,10.25384 0,0 -22.426083,16.22636 -35.426649,-1.68946 0,0 1.627364,11.10298 9.425869,14.94896 0,0 -3.249436,2.13325 -9.425869,0 0,0 11.051822,19.21686 32.503885,18.78824 0,0 -6.193013,3.41736 -17.228255,2.56187 0,0 4.554361,3.84598 8.444442,5.55202 0,0 -17.222611,11.95846 -34.45228,-2.56187 1.30634,3.64913 3.12526,7.094 5.405969,10.22914 z m -24.481013,-49.0788 -2.545292,3.51826 c -1.13418,-0.61595 -2.233788,-1.29399 -3.293533,-2.03271 1.998133,-0.26458 3.957814,-0.76341 5.838825,-1.48555 z"
       style="fill:#ffe7c2;fill-opacity:1;fill-rule:nonzero;stroke:none;stroke-width:0.352778"
       id="path36" />
    <path
       d="m 297.03408,203.25059 c -17.08362,17.93805 -46.54727,1.68946 -46.54727,1.68946 16.22778,-1.68946 21.35117,-10.24855 21.35117,-10.24855 -13.6659,5.12516 -26.46362,-3.41736 -26.46362,-3.41736 h 8.96408 c -6.82978,-2.56187 -7.25805,-5.97394 -7.25805,-5.97394 25.62437,5.97394 36.72734,-14.94754 36.72734,-14.94754 -20.92819,12.809 -36.29907,0.42721 -36.29907,0.42721 6.82978,0 11.5316,-4.70182 11.5316,-4.70182 -3.43535,-0.0384 -6.80896,-0.91793 -9.82556,-2.56187 15.37617,-2.56152 20.92854,-14.51469 20.92854,-14.51469 -15.99636,8.3439 -24.3459,4.23474 -26.89684,2.41547 v -0.77717 c 7.13423,-0.68616 11.07546,-4.62739 11.07546,-4.62739 -2.56187,-2.13995 -7.68526,-2.56187 -7.68526,-2.56187 7.26228,-3.41736 11.10262,-10.69763 11.10262,-10.69763 -5.16326,3.09633 -10.6299,3.37749 -14.15521,3.1242 l 0.0512,-2.29165 c 9.65588,-5.18583 8.98067,-12.38744 8.98067,-12.38744 -2.08351,2.78236 -5.80567,3.42442 -8.77253,3.43006 0,0 -4.07635,-28.4166 -4.75156,-28.191881 -0.49072,-0.118533 -3.37891,28.427541 -3.37891,28.427541 -2.96686,0 -6.69466,-0.641 -8.78381,-3.42865 0,0 -0.67522,7.19067 9.00959,12.38709 l 0.0497,2.29164 c -3.52354,0.25929 -9.00818,-0.0289 -14.16614,-3.13055 0,0 3.84598,7.25805 11.10403,10.69763 0,0 -5.12339,0.42863 -7.68526,2.56152 0,0 3.94123,3.94124 11.08639,4.63444 v 0.76483 c -2.53965,1.81363 -10.88919,5.95171 -26.90883,-2.40877 0,0 5.55202,11.95846 20.92819,14.52033 -3.0166,1.64395 -6.38986,2.52307 -9.82416,2.56188 0,0 4.70077,4.69617 11.53019,4.69617 0,0 -15.37052,12.38603 -36.29907,-0.42298 0,0 11.10298,20.9229 36.7277,14.94367 0,0 -0.42863,3.41736 -7.25805,5.97923 h 8.96408 c 0,0 -12.80901,8.5411 -26.46257,3.41736 0,0 5.1234,8.5411 21.34976,10.24713 -3.28224,1.70321 -6.7123,3.10762 -10.24678,4.19488 l -0.0568,-0.0455 c -0.0261,0.0399 -0.048,0.0811 -0.0674,0.12382 -1.0474,1.97062 -6.92608,11.86921 -20.74756,14.17179 3.01378,1.64394 6.38563,2.52483 9.81851,2.56187 -2.72451,2.49026 -6.14469,4.0887 -9.80229,4.58329 -0.57185,0.073 -1.14652,0.11042 -1.72226,0.11324 1.17934,0.87771 2.4444,1.63125 3.77719,2.25143 h 27.39249 c 1.7653,-0.78811 3.47698,-1.69228 5.12375,-2.70757 -0.53058,0.94086 -1.12325,1.84644 -1.77377,2.70757 h 45.13897 c 13.99117,-5.50086 21.14762,-14.94896 21.14762,-14.94896 -8.11389,2.13466 -12.38744,0 -12.38744,0 10.24714,-3.82799 12.36522,-14.93097 12.36522,-14.93097 z"
       style="fill:#ffe7c2;fill-opacity:1;fill-rule:nonzero;stroke:none;stroke-width:0.352778"
       id="path40" />
    <path
       d="m 191.99873,210.72772 v 0.77752 c 2.47226,1.76248 10.39847,5.68008 25.46067,-1.6898 l 1.22238,-0.61983 -12.77585,-15.35289 c -1.32291,2.10008 -4.89338,7.04885 -10.51736,9.69468 0,0 5.12374,0.42828 7.68526,2.56152 0,0 -3.31681,3.30059 -9.35249,4.38644 -0.55703,0.0963 -1.12607,0.18592 -1.72261,0.24236 z"
       style="fill:#ffe7c2;fill-opacity:1;fill-rule:nonzero;stroke:none;stroke-width:0.352778"
       id="path42" />
    <path
       d="m 0.16593717,225.65339 c -1.33244167,-0.29068 -2.57951107,-0.88617 -3.64348877,-1.73919 0.4452055,1.03364 0.9909527,2.02177 1.6277166,2.95063 0.6790972,1.02094 1.49083885,1.94698 2.41546939,2.75308 0.35418888,0.29916 0.73060271,0.57185 1.12606661,0.81598 -0.6462888,0.0868 -1.27881939,0.24941 -1.88665549,0.48507 -0.63817498,0.22577 -1.21531941,0.59513 -1.68945271,1.0802 0.1749777,0.21661 0.3623027,0.42192 0.5637388,0.61348 0.1693334,0.1584 0.36653615,0.33761 0.6021917,0.52352 H 10.632148 c 0.364067,-0.29633 0.697442,-0.62829 0.996597,-0.99095 -0.847725,-0.7814 -1.9074691,-1.29399 -3.0455302,-1.47426 l -0.1915584,-0.32103 c 0.1943806,-0.12982 0.3817056,-0.26881 0.5637389,-0.41627 2.5837447,1.30351 5.2775557,2.3756 8.0503887,3.20251 H 32.27577 c 0.872419,-0.35419 1.700389,-0.80468 2.472266,-1.34514 v -0.78246 c -7.12858,-0.68086 -11.075458,-4.6288 -11.075458,-4.6288 2.561872,-2.13324 7.685264,-2.56187 7.685264,-2.56187 -0.898172,-0.42157 -1.763889,-0.90946 -2.589036,-1.45803 -5.152672,3.20675 -11.12908,4.83694 -17.196858,4.69089 0.642408,-0.93839 1.193447,-1.93605 1.645708,-2.97921 -1.86055,1.47285 -4.2223968,2.15935 -6.5831856,1.91382 v -1.40123 c 4.5049716,-3.16407 4.1782996,-7.55051 4.1782996,-7.55051 -0.9687275,1.68946 -2.7022774,2.08915 -4.0816385,2.0948 0,0 -0.2081389,-2.6857 -0.4741334,-5.94643 5.0380189,2.71639 10.7364389,3.96487 16.4468529,3.60363 -0.928864,-1.13806 -1.759656,-2.35373 -2.483203,-3.63114 2.408766,1.43192 5.065889,2.39783 7.832725,2.84303 2.1209,-0.49459 4.193469,-1.17968 6.193013,-2.04364 -9.571919,-5.18019 -8.913283,-12.33064 -8.913283,-12.33064 2.08915,2.78095 5.811308,3.423 8.77817,3.42865 0,0 4.070702,-28.41131 4.751563,-28.19083 0.48507,-0.11853 3.378906,28.43319 3.378906,28.43319 2.966861,0 6.694664,-0.64206 8.783461,-3.42865 0,0 0.675216,7.18926 -9.009592,12.38744 l -0.05503,2.28459 c 3.523544,0.25929 9.00818,0 14.164733,-3.12385 0,0 -3.838928,7.25664 -11.102622,10.69763 0,0 5.129036,0.42722 7.690908,2.56187 0,0 -3.941233,3.94124 -11.092039,4.62739 v 0.77153 c 0.61207,0.43568 1.262239,0.81174 1.9431,1.12606 h 16.609483 c 2.884311,-0.92463 5.680428,-2.10432 8.355189,-3.52389 -0.631119,1.24601 -1.386417,2.42675 -2.25178,3.52389 h 59.248667 c -0.63676,-0.95109 -0.96308,-1.56563 -0.96308,-1.56563 1.01812,0.60925 2.08351,1.13277 3.18735,1.56563 h 10.94563 v -0.72072 c -9.66822,-5.18548 -9.00959,-12.38603 -9.00959,-12.38603 2.08915,2.81411 5.8166,3.42865 8.78911,3.43429 0,0 2.89383,-28.55171 3.3789,-28.43318 0.68086,-0.22049 4.75157,28.19047 4.75157,28.19047 2.96686,0 6.68902,-0.6477 8.77252,-3.42829 0,0 0.65335,6.99875 -8.61942,12.16095 0.78811,0.42298 1.57092,0.81739 2.33574,1.17122 h 7.59566 c 1.32715,-0.4766 2.60597,-1.0802 3.81706,-1.80093 0,0 -0.38312,0.71508 -1.12572,1.80093 h 18.11302 c 1.1617,-0.57714 2.2666,-1.25941 3.30447,-2.03799 -0.98672,-0.004 -1.97061,-0.10478 -2.93793,-0.29916 -0.88194,-0.52211 -1.86196,-0.85972 -2.87761,-0.9906 3.37785,-2.08209 5.15691,-6.51968 5.15691,-6.51968 -1.06398,0.85301 -2.31105,1.4485 -3.64243,1.7406 0.8957,-0.32808 1.76389,-0.72743 2.59503,-1.19486 -1.45521,-0.23953 -2.89384,-0.58138 -4.30107,-1.02376 1.87149,-1.66899 2.94923,-4.05271 2.96722,-6.55955 -0.96908,1.68945 -2.70263,2.08915 -4.08199,2.0948 0,0 -0.12947,-1.72967 -0.32103,-4.0887 6.38986,0.56339 10.13425,-1.41252 11.7161,-2.5273 v -0.77188 c -7.1381,-0.6805 -11.09168,-4.62738 -11.09168,-4.62738 2.56151,-2.13995 7.69196,-2.56187 7.69196,-2.56187 -7.26369,-3.41877 -11.10403,-10.69764 -11.10403,-10.69764 5.16325,3.10198 10.6426,3.3775 14.16614,3.12949 l -0.0564,-2.286 c -9.66153,-5.18548 -9.00818,-12.38602 -9.00818,-12.38602 2.08915,2.78094 5.8166,3.42335 8.78346,3.42864 0,0 0.77717,-7.67432 1.59314,-15.04385 L 158.05339,136.27115 136.46092,155.54446 76.248813,61.748256 38.75665,118.28231 20.576248,104.76915 -3.2348405,137.71789 c 0.8269111,4.578 3.16406379,27.63943 3.16406379,27.63943 2.96686101,0 6.69431101,-0.64064 8.78346091,-3.42864 0,0 0.6752167,7.19067 -9.00818035,12.38744 l -0.0564444,2.28599 c 3.52354435,0.25894 9.00818035,-0.0289 14.16614455,-3.12525 0,0 -3.840692,7.25805 -11.1043863,10.69763 0,0 5.1304471,0.42862 7.6923193,2.56187 0,0 -3.9412333,3.94088 -11.09168588,4.6288 v 0.77152 C 1.8486871,193.9489 10.199643,198.0817 26.21787,189.72651 c 0,0 -5.506508,11.8237 -20.7200496,14.48047 -0.044097,-0.8061 -0.1488722,-1.60832 -0.3157361,-2.39784 -0.1679222,-0.073 -0.8103306,5.0218 -1.3571361,9.68481 h -0.2413 l 0.219075,0.16828 c -0.4452055,3.84598 -0.8283222,7.32014 -0.8283222,7.32014 -1.3793611,0 -3.1072666,-0.39406 -4.0759944,-2.0948 0,0 -0.2758722,3.99239 3.5979805,7.1053 0.1806222,0.14605 0.3665361,0.29916 0.5637389,0.44521 v 1.39029 l -0.6311194,0.0399 c -0.7609417,0.018 -1.52011944,-0.0536 -2.26306943,-0.21485 z M 169.89896,218.21049 c -1.37936,0 -3.10726,-0.39405 -4.07599,-2.09444 -0.0127,0.79093 0.0991,1.58044 0.33196,2.33715 -3.32387,-2.3936 -6.0579,-5.51497 -7.98971,-9.12812 3.83893,2.07927 7.95514,3.59656 12.22446,4.50461 -0.28787,2.51108 -0.49072,4.3808 -0.49072,4.3808 z m -13.5516,-66.21321 1.68804,-2.25178 4.50497,5.62927 -11.8237,14.6678 14.10441,-8.44586 4.50321,3.94124 -4.50321,4.50462 8.44585,-0.56339 -32.71872,16.93051 -20.87175,1.68945 16.92522,-4.50497 -6.75675,-3.37749 z m -77.299608,-72.597788 12.31265,20.742278 -7.774869,10.36567 10.365669,-4.5339 34.345028,55.08836 -12.94941,20.73663 -18.795293,5.83353 -25.927755,28.51715 z M 8.7017481,157.70663 21.826139,113.95796 36.408561,124.65559 Z m -3.1873472,46.62452 c 2.9640389,1.55963 6.2561611,2.39501 9.6061391,2.43911 -2.523067,2.30822 -5.6458558,3.85974 -9.0095918,4.47569 -0.168275,-2.4832 -0.4162778,-5.07929 -0.5965473,-6.9148 z"
       style="fill:#ffe7c2;fill-opacity:1;fill-rule:nonzero;stroke:none;stroke-width:0.352778"
       id="path44" />
    <path
       d="m 116.22453,107.65734 c 1.19063,-0.0868 2.41159,-0.12947 3.66536,-0.12947 10.64154,0 19.27331,3.09669 19.27331,6.91515 0,1.27177 -0.96308,2.46522 -2.64019,3.49039 9.54299,0.5969 14.6043,5.01615 14.6043,5.01615 h -25.08286 l 11.11391,17.31362 21.58683,-19.27331 27.12826,32.657 c 20.46111,-12.19306 32.99001,-34.25966 32.97625,-58.077456 0,-0.850194 0,-1.689453 -0.0564,-2.545292 H 168.30053 L 146.44348,92.8435 c 6.1542,-2.72415 16.57491,-4.103864 28.11744,-4.706055 -0.51823,-0.321028 -0.79939,-0.658636 -0.79939,-1.002948 0,-2.640541 16.12582,-4.786136 36.03448,-4.786136 2.68041,0 5.28744,0.04022 7.8038,0.113242 -0.18062,-0.889 -0.37218,-1.773766 -0.56233,-2.645833 -0.39405,-1.652411 -0.84737,-3.273072 -1.35713,-4.864453 -0.11854,-0.388761 -0.24271,-0.771878 -0.37218,-1.154994 -8.88824,-26.113669 -32.74201,-44.214344 -60.28514,-45.74681 -27.54277,-1.531056 -53.2571,13.814777 -64.985545,38.782271 z"
       style="fill:#ffe7c2;fill-opacity:1;fill-rule:nonzero;stroke:none;stroke-width:0.352778"
       id="path72" />
  </g>
</svg>
