<?xml version="1.0" encoding="UTF-8" standalone="no"?>
<svg
   xmlns="http://www.w3.org/2000/svg"
   width="402.10065mm"
   height="268.33698mm"
   viewBox="0 0 402.10065 268.33698"
   version="1.1"
   id="svg1896">
  <defs
     id="defs1890" />
  <g
     id="layer1"
     transform="translate(318.22292,174.23397)">
    <path
       d="m -20.791434,54.600026 -0.0508,2.297289 c 4.557183,0.383117 9.130947,-0.515408 13.2030605,-2.595033 l -5.5851775,-6.717947 c -1.210028,2.229908 -3.445228,4.804127 -7.567083,7.015691 z"
       style="fill:currentColor;fill-opacity:1;fill-rule:nonzero;stroke:none;stroke-width:0.352778"
       id="path24" />
    <path
       d="m -20.588587,45.664871 c 1.722261,0.02081 3.436761,-0.253647 5.066947,-0.810331 l -6.305903,-7.623174 c 0.709789,4.729338 1.238956,8.433505 1.238956,8.433505 z"
       style="fill:currentColor;fill-opacity:1;fill-rule:nonzero;stroke:none;stroke-width:0.352778"
       id="path26" />
    <path
       d="m -225.45052,94.05187 c 0.87771,-0.425803 1.73214,-0.901347 2.55623,-1.423458 h -8.96973 c 1.04599,-0.384528 2.05881,-0.854428 3.03036,-1.402998 3.94124,-2.251427 4.22769,-4.576233 4.22769,-4.576233 -7.4041,1.73355 -13.59711,1.204383 -18.66406,-0.412044 -12.43824,-3.974395 -18.01777,-14.531622 -18.01777,-14.531622 6.45195,3.941233 12.38708,5.501216 17.48155,5.760508 11.46422,0.561975 18.81716,-5.338586 18.81716,-5.338586 -1.95121,-0.0085 -3.88443,-0.376414 -5.70371,-1.08585 -2.16746,-0.8255 -4.15889,-2.056342 -5.86634,-3.62585 3.43288,-0.03845 6.80473,-0.917575 9.81851,-2.561519 -13.41084,-2.253192 -19.34492,-11.615561 -20.63997,-13.974939 -0.19155,-0.349955 -0.28116,-0.563386 -0.28116,-0.563386 1.12571,0.563386 2.20063,1.125714 3.24803,1.576211 9.92575,4.431947 16.53081,3.8227 20.35351,2.494492 1.17404,-0.379236 2.28882,-0.92075 3.31152,-1.611136 v -0.781403 c -0.62018,-0.05644 -1.20579,-0.147461 -1.77376,-0.253295 -1.36949,-0.239888 -2.71039,-0.61595 -4.00297,-1.126066 -1.95016,-0.742597 -3.74686,-1.838325 -5.29872,-3.232856 2.56187,-2.133247 7.68526,-2.561872 7.68526,-2.561872 -7.25805,-3.411714 -11.10262,-10.697633 -11.10262,-10.697633 5.16325,3.096683 10.63025,3.378906 14.15521,3.130903 l -0.0512,-2.296936 c -9.65588,-5.180189 -9.00818,-12.387439 -9.00818,-12.387439 2.08774,2.782358 5.8099,3.423003 8.77676,3.428647 0,0 2.87196,-20.0547105 4.19488,-26.33309643 l -27.5265,38.07812743 c -8.24336,0.941211 -14.97083,-4.948414 -14.97083,-4.948414 h 6.82942 c -5.19783,-2.561872 -5.52309,-5.979583 -5.52309,-5.979583 19.50332,5.979583 27.94812,-14.943314 27.94812,-14.943314 -15.92192,12.809008 -27.62286,0.428625 -27.62286,0.428625 5.19783,0 8.77253,-4.7018222 8.77253,-4.7018222 -2.69134,-0.080081 -5.29731,-0.9729611 -7.47183,-2.5618721 11.70093,-2.5618722 15.92333,-14.5146886 15.92333,-14.5146886 -12.19024,8.3548359 -18.54694,4.2167527 -20.4777,2.4087666 v -0.7704666 c 3.29072,-0.4466167 6.2992,-2.0944417 8.44586,-4.6287971 -1.94839,-2.138892 -5.85082,-2.561872 -5.85082,-2.561872 5.52979,-3.417358 8.44585,-10.697633 8.44585,-10.697633 -3.04553,2.414411 -6.91656,3.537302 -10.78195,3.130902 l 0.0388,-2.286 c 7.36,-5.185833 6.84177,-12.387438 6.84177,-12.387438 -1.58891,2.782358 -4.4263,3.423003 -6.68337,3.430058 0,0 -2.20204,-28.553127 -2.57281,-28.434594 -0.51823,-0.219075 -3.61456,28.191883 -3.61456,28.191883 -2.25319,0 -5.06836,-0.6477 -6.67809,-3.428294 0,0 -0.51787,7.183613 6.82978,12.385674 l 0.0385,2.297289 c -3.86256,0.407811 -7.73218,-0.7112 -10.78159,-3.118555 0,0 2.92806,7.256638 8.44585,10.697633 0,0 -3.90278,0.427214 -5.84976,2.561872 2.1456,2.534003 5.15514,4.1821804 8.44444,4.627386 v 0.7771694 c -1.94133,1.8189222 -8.29839,5.9298415 -20.47204,-2.4154694 0,0 4.2238,11.959872 15.92333,14.5217441 -2.17453,1.5889111 -4.77908,2.4817916 -7.47184,2.5615194 0,0 3.57611,4.6951195 8.77253,4.6951195 0,0 -11.69952,12.387086 -27.6225,-0.427214 0,0 8.44585,20.928188 27.94917,14.948958 0,0 -0.32667,3.417358 -5.52309,5.97923 h 6.84601 c 0,0 -9.75219,8.519231 -20.14009,3.388784 0,0 3.90278,8.542513 16.25001,10.253838 0,0 -22.42609,16.226367 -35.42665,-1.689452 0,0 1.62736,11.102974 9.42587,14.948958 0,0 -3.24944,2.133247 -9.42587,0 0,0 11.05182,19.216863 32.50388,18.788238 0,0 -6.19301,3.417358 -17.22825,2.561872 0,0 4.55436,3.845983 8.44444,5.552017 0,0 -17.22261,11.958461 -34.45228,-2.561872 1.30634,3.649133 3.12526,7.094008 5.40597,10.229144 z m -24.48101,-49.078796 -2.54529,3.518252 c -1.13418,-0.61595 -2.23379,-1.293988 -3.29354,-2.032705 1.99814,-0.264583 3.95782,-0.763411 5.83883,-1.485547 z"
       style="fill:currentColor;fill-opacity:1;fill-rule:nonzero;stroke:none;stroke-width:0.352778"
       id="path36" />
    <path
       d="M 83.855505,64.155365 C 66.771889,82.093409 37.308242,65.844818 37.308242,65.844818 53.53602,64.155365 58.659411,55.596271 58.659411,55.596271 44.993506,60.721426 32.195787,52.178912 32.195787,52.178912 H 41.15987 C 34.330092,49.61704 33.90182,46.204974 33.90182,46.204974 59.526186,52.178912 70.629161,31.257427 70.629161,31.257427 49.700972,44.066435 34.330092,31.684641 34.330092,31.684641 c 6.829778,0 11.5316,-4.701822 11.5316,-4.701822 -3.43535,-0.03845 -6.808964,-0.917928 -9.825566,-2.561873 C 51.412297,21.859427 56.964667,9.9062578 56.964667,9.9062578 40.968312,18.250158 32.618767,14.141002 30.067831,12.321727 V 11.544558 C 37.202056,10.858405 41.143289,6.9171717 41.143289,6.9171717 38.581417,4.7772218 33.458026,4.3552996 33.458026,4.3552996 40.720309,0.93794132 44.560648,-6.3423335 44.560648,-6.3423335 39.397392,-3.246003 33.930748,-2.9648392 30.40544,-3.2181336 l 0.05115,-2.2916444 c 9.655881,-5.185833 8.980664,-12.387439 8.980664,-12.387439 -2.083505,2.782359 -5.805664,3.424414 -8.772525,3.430059 0,0 -4.076347,-28.416602 -4.751564,-28.191883 -0.490713,-0.118533 -3.378905,28.427538 -3.378905,28.427538 -2.966861,0 -6.694664,-0.640997 -8.783814,-3.428647 0,0 -0.675216,7.190669 9.009592,12.3870859 l 0.04974,2.2916444 c -3.523544,0.2592917 -9.00818,-0.028928 -14.1661437,-3.1305499 0,0 3.8459837,7.2580498 11.1040327,10.6976331 0,0 -5.123391,0.4286249 -7.685263,2.5615193 0,0 3.941233,3.9412332 11.086394,4.6344412 v 0.764823 c -2.539647,1.81363 -10.889192,5.951713 -26.9088301,-2.408767 0,0 5.5520165,11.958461 20.9281881,14.520333 -3.016602,1.643944 -6.389863,2.523067 -9.824155,2.561872 0,0 4.700764,4.696178 11.530189,4.696178 0,0 -15.3705278,12.386027 -36.299069,-0.422981 0,0 11.1029747,20.922897 36.727694,14.943667 0,0 -0.428625,3.417358 -7.25805,5.97923 h 8.964083 c 0,0 -12.8090081,8.541103 -26.4625662,3.417358 0,0 5.12339157,8.541103 21.3497582,10.247136 -3.282245,1.703211 -6.7123029,3.10762 -10.2467834,4.194881 l -0.056797,-0.04551 c -0.026106,0.03986 -0.047978,0.08114 -0.067381,0.123825 -1.0473972,1.970617 -6.926086,11.869208 -20.7475656,14.171789 3.01378,1.643944 6.3856298,2.52483 9.8185103,2.561872 -2.7245027,2.490258 -6.1446833,4.088694 -9.8022833,4.583289 -0.571852,0.07303 -1.146527,0.110419 -1.722261,0.113242 1.179336,0.877711 2.444397,1.631244 3.777192,2.251427 h 27.392488 c 1.7653,-0.788105 3.476978,-1.692275 5.123744,-2.707569 -0.530577,0.940858 -1.123244,1.846439 -1.773766,2.707569 H 62.730114 C 76.72128,88.534425 83.87773,79.086331 83.87773,79.086331 c -8.113889,2.134659 -12.387439,0 -12.387439,0 C 81.737427,75.25834 83.855505,64.155365 83.855505,64.155365 Z"
       style="fill:currentColor;fill-opacity:1;fill-rule:nonzero;stroke:none;stroke-width:0.352778"
       id="path40" />
    <path
       d="m -21.179843,71.63249 v 0.777522 c 2.472267,1.762478 10.398478,5.680075 25.4606776,-1.689806 l 1.222375,-0.61983 -12.775847,-15.352889 c -1.3229166,2.100086 -4.8933806,7.048853 -10.5173636,9.694686 0,0 5.123744,0.428272 7.685264,2.56152 0,0 -3.316817,3.300588 -9.352492,4.386438 -0.557036,0.09631 -1.126066,0.185914 -1.722614,0.242359 z"
       style="fill:currentColor;fill-opacity:1;fill-rule:nonzero;stroke:none;stroke-width:0.352778"
       id="path42" />
    <path
       d="m -213.01263,86.558164 c -1.33244,-0.290688 -2.57951,-0.886177 -3.64349,-1.739194 0.4452,1.033639 0.99095,2.021769 1.62771,2.950633 0.6791,1.020939 1.49084,1.946981 2.41547,2.753078 0.35419,0.299156 0.73061,0.571853 1.12607,0.815975 -0.64629,0.08678 -1.27882,0.249414 -1.88665,0.485069 -0.63818,0.225778 -1.21532,0.595137 -1.68946,1.080206 0.17498,0.216606 0.36231,0.421922 0.56374,0.61348 0.16933,0.158398 0.36654,0.337609 0.60219,0.523523 h 11.35063 c 0.36406,-0.296334 0.69744,-0.628298 0.9966,-0.990953 -0.84773,-0.781403 -1.90747,-1.293989 -3.04554,-1.474258 l -0.19155,-0.321028 c 0.19438,-0.129822 0.3817,-0.268817 0.56374,-0.416278 2.58374,1.303514 5.27755,2.375606 8.05038,3.202517 h 15.26999 c 0.87242,-0.354189 1.70039,-0.804686 2.47227,-1.345142 v -0.782461 c -7.12858,-0.680861 -11.07546,-4.628797 -11.07546,-4.628797 2.56187,-2.133247 7.68526,-2.561872 7.68526,-2.561872 -0.89817,-0.42157 -1.76389,-0.909461 -2.58903,-1.458031 -5.15268,3.20675 -11.12908,4.836936 -17.19686,4.690886 0.64241,-0.938389 1.19345,-1.936044 1.64571,-2.979208 -1.86055,1.472847 -4.2224,2.159353 -6.58319,1.913819 v -1.401233 c 4.50497,-3.164064 4.1783,-7.550503 4.1783,-7.550503 -0.96873,1.689453 -2.70228,2.08915 -4.08164,2.094795 0,0 -0.20814,-2.685697 -0.47413,-5.946422 5.03802,2.716389 10.73644,3.964869 16.44685,3.603625 -0.92886,-1.138061 -1.75965,-2.353734 -2.4832,-3.631142 2.40876,1.431925 5.06589,2.397831 7.83272,2.843036 2.1209,-0.494594 4.19347,-1.179689 6.19302,-2.043642 -9.57192,-5.180188 -8.91329,-12.330641 -8.91329,-12.330641 2.08915,2.780947 5.81131,3.423003 8.77817,3.428647 0,0 4.07071,-28.41131 4.75157,-28.190824 0.48507,-0.118533 3.3789,28.433183 3.3789,28.433183 2.96686,0 6.69467,-0.642056 8.78346,-3.428648 0,0 0.67522,7.189259 -9.00959,12.387439 l -0.055,2.284589 c 3.52354,0.259292 9.00818,0 14.16473,-3.123847 0,0 -3.83893,7.256638 -11.10262,10.697633 0,0 5.12903,0.427214 7.69091,2.561872 0,0 -3.94124,3.941233 -11.09204,4.627386 v 0.771525 c 0.61207,0.43568 1.26224,0.811742 1.9431,1.126067 h 16.60948 c 2.88431,-0.924631 5.68043,-2.10432 8.35519,-3.523898 -0.63112,1.246012 -1.38642,2.426759 -2.25178,3.523898 h 59.248673 c -0.636764,-0.951089 -0.963083,-1.565628 -0.963083,-1.565628 1.018117,0.609247 2.083505,1.132769 3.187347,1.565628 h 10.945636 v -0.720725 c -9.668228,-5.185481 -9.009591,-12.386028 -9.009591,-12.386028 2.089149,2.814108 5.816599,3.428647 8.789105,3.434292 0,0 2.893836,-28.551716 3.378905,-28.433183 0.680861,-0.220486 4.751564,28.190472 4.751564,28.190472 2.966861,0 6.689019,-0.6477 8.772525,-3.428295 0,0 0.653344,6.998758 -8.619419,12.160956 0.788105,0.42298 1.570919,0.817386 2.335741,1.171222 h 7.595658 c 1.32715,-0.476603 2.60597,-1.080206 3.817056,-1.800931 0,0 -0.383117,0.715081 -1.125714,1.800931 h 18.113022 c 1.161697,-0.577145 2.266597,-1.259417 3.304469,-2.037997 -0.986719,-0.0042 -1.970616,-0.104775 -2.937933,-0.299156 -0.881944,-0.522111 -1.861961,-0.859719 -2.877608,-0.9906 3.377847,-2.082094 5.156905,-6.519686 5.156905,-6.519686 -1.063978,0.853017 -2.311047,1.448506 -3.64243,1.740606 0.895702,-0.328084 1.763889,-0.727428 2.595033,-1.194859 -1.455208,-0.239536 -2.893836,-0.581378 -4.301067,-1.023761 1.871487,-1.668991 2.949223,-4.052711 2.967214,-6.55955 -0.96908,1.689453 -2.70263,2.08915 -4.081991,2.094795 0,0 -0.12947,-1.72967 -0.321028,-4.088695 6.389864,0.563386 10.134247,-1.412522 11.716102,-2.5273 v -0.771877 c -7.138105,-0.680509 -11.091685,-4.627386 -11.091685,-4.627386 2.561519,-2.13995 7.691966,-2.561873 7.691966,-2.561873 -7.263694,-3.418769 -11.104033,-10.697633 -11.104033,-10.697633 5.163255,3.101975 10.6426,3.377495 14.166144,3.129492 l -0.05644,-2.286 c -9.661525,-5.18548 -9.008181,-12.386027 -9.008181,-12.386027 2.08915,2.780947 5.8166,3.423355 8.783461,3.428647 0,0 0.77717,-7.674328 1.593145,-15.043856 l -27.993622,-33.6930988 -21.592469,19.2733078 -60.212117,-93.796201 -37.49216,56.534049 -18.1804,-13.513152 -23.81109,32.9487378 c 0.82691,4.5779971 3.16406,27.6394332 3.16406,27.6394332 2.96686,0 6.69431,-0.640645 8.78346,-3.428648 0,0 0.67522,7.19067 -9.00818,12.387439 l -0.0564,2.286 c 3.52354,0.258939 9.00818,-0.02893 14.16614,-3.125258 0,0 -3.84069,7.25805 -11.10438,10.697633 0,0 5.13044,0.428625 7.69232,2.561872 0,0 -3.94124,3.94088 -11.09169,4.628797 v 0.771525 c 2.53824,1.812219 10.88919,5.945011 26.90742,-2.410178 0,0 -5.50651,11.8237 -20.72005,14.480469 -0.0441,-0.806097 -0.14887,-1.608313 -0.31574,-2.39783 -0.16792,-0.07303 -0.81033,5.021792 -1.35713,9.684808 h -0.2413 l 0.21907,0.168275 c -0.4452,3.845983 -0.82832,7.320139 -0.82832,7.320139 -1.37936,0 -3.10727,-0.394053 -4.07599,-2.094795 0,0 -0.27588,3.992386 3.59798,7.105297 0.18062,0.14605 0.36653,0.299156 0.56374,0.445206 v 1.390297 l -0.63112,0.03986 c -0.76095,0.01799 -1.52012,-0.05362 -2.26307,-0.214842 z m 169.733024,-7.442905 c -1.379361,0 -3.107267,-0.394053 -4.075994,-2.094442 -0.0127,0.790928 0.09913,1.580445 0.331964,2.337153 -3.323873,-2.393597 -6.0579,-5.514975 -7.989711,-9.128125 3.838927,2.079273 7.955138,3.59657 12.224455,4.50462 -0.287867,2.511072 -0.490714,4.380794 -0.490714,4.380794 z m -13.551605,-66.213212 1.688041,-2.251781 4.504972,5.629275 -11.823699,14.667794 14.104408,-8.445852 4.503208,3.941233 -4.503208,4.504619 8.445852,-0.563386 -32.718727,16.930511 -20.871744,1.689452 16.925219,-4.504972 -6.756752,-3.377494 z m -77.299609,-72.597785 12.31265,20.742275 -7.77487,10.365669 10.36567,-4.5339 34.345034,55.088365 -12.949413,20.736631 -18.795291,5.833533 -25.92776,28.517144 z m -70.346,78.30714 13.12439,-43.748677 14.58242,10.697633 z m -3.18735,46.624521 c 2.96404,1.559631 6.25616,2.395009 9.60614,2.439106 -2.52307,2.308225 -5.64586,3.859741 -9.00959,4.475691 -0.16828,-2.483202 -0.41628,-5.079294 -0.59655,-6.914797 z"
       style="fill:currentColor;fill-opacity:1;fill-rule:nonzero;stroke:none;stroke-width:0.352778"
       id="path44" />
    <path
       d="m -221.83067,-52.466616 c 0,1.651 -1.33808,2.989086 -2.98873,2.989086 -1.65241,0 -2.9905,-1.338086 -2.9905,-2.989086 0,-1.652411 1.33809,-2.990497 2.9905,-2.990497 1.65065,0 2.98873,1.338086 2.98873,2.990497 z"
       style="fill:currentColor;fill-opacity:1;fill-rule:nonzero;stroke:none;stroke-width:0.352778"
       id="path46" />
    <path
       d="m -209.0714,-109.84133 c 0,-1.4344 -1.73496,-2.1523 -2.7492,-1.13807 -1.01423,1.01424 -0.29598,2.7492 1.13842,2.7492 0.89006,0 1.61078,-0.72072 1.61078,-1.61113 z"
       style="fill:currentColor;fill-opacity:1;fill-rule:nonzero;stroke:none;stroke-width:0.352778"
       id="path48" />
    <path
       d="m -201.45352,-58.705138 c 0,-1.435805 -1.73778,-2.153708 -2.7506,-1.13665 -1.01424,1.017058 -0.29069,2.752019 1.14511,2.746375 0.88759,-0.0035 1.60549,-0.723547 1.60549,-1.609725 z"
       style="fill:currentColor;fill-opacity:1;fill-rule:nonzero;stroke:none;stroke-width:0.352778"
       id="path50" />
    <path
       d="m -136.81652,-100.9665 c 0,1.650644 -1.33949,2.98873 -2.99049,2.98873 -1.651,0 -2.98874,-1.338086 -2.98874,-2.98873 0,-1.65241 1.33774,-2.9905 2.98874,-2.9905 1.651,0 2.99049,1.33809 2.99049,2.9905 z"
       style="fill:currentColor;fill-opacity:1;fill-rule:nonzero;stroke:none;stroke-width:0.352778"
       id="path52" />
    <path
       d="m -21.261334,-174.00526 c 1.525764,0.63112 2.248958,2.38125 1.617839,3.90666 -0.632531,1.52541 -2.38125,2.24896 -3.906661,1.61784 -1.525412,-0.63253 -2.25037,-2.38125 -1.617839,-3.90701 0.63253,-1.52542 2.38125,-2.25002 3.906661,-1.61749 z"
       style="fill:currentColor;fill-opacity:1;fill-rule:nonzero;stroke:none;stroke-width:0.352778"
       id="path54" />
    <path
       d="m 56.265814,-96.992462 c 0,-1.208617 -0.727428,-2.298347 -1.845028,-2.761544 -1.1176,-0.462844 -2.403475,-0.206728 -3.257902,0.6477 -0.855839,0.855838 -1.111956,2.141361 -0.649112,3.257549 0.463198,1.1176 1.553281,1.846792 2.762956,1.846792 1.651,0 2.989086,-1.339497 2.989086,-2.990497 z"
       style="fill:currentColor;fill-opacity:1;fill-rule:nonzero;stroke:none;stroke-width:0.352778"
       id="path56" />
    <path
       d="m -146.71087,-164.84009 c 0.26458,1.63018 -0.84208,3.16547 -2.47086,3.43005 -1.63018,0.26459 -3.16688,-0.84208 -3.43147,-2.47085 -0.26458,-1.63019 0.84349,-3.16689 2.47227,-3.43147 1.63018,-0.26458 3.16547,0.84349 3.43006,2.47227 z"
       style="fill:currentColor;fill-opacity:1;fill-rule:nonzero;stroke:none;stroke-width:0.352778"
       id="path58" />
    <path
       d="m -53.177845,-122.82497 c 0,1.65206 -1.338086,2.99015 -2.989086,2.99015 -1.651,0 -2.990497,-1.33809 -2.990497,-2.99015 0,-1.651 1.339497,-2.98908 2.990497,-2.98908 1.651,0 2.989086,1.33808 2.989086,2.98908 z"
       style="fill:currentColor;fill-opacity:1;fill-rule:nonzero;stroke:none;stroke-width:0.352778"
       id="path60" />
    <path
       d="m -119.63236,-150.00261 c 0,-1.43475 -1.73496,-2.15265 -2.74919,-1.13842 -1.01424,1.01424 -0.29634,2.7492 1.13806,2.7492 0.889,0 1.61113,-0.72073 1.61113,-1.61078 z"
       style="fill:currentColor;fill-opacity:1;fill-rule:nonzero;stroke:none;stroke-width:0.352778"
       id="path62" />
    <path
       d="m -36.928195,-133.95017 c 0,-1.43439 -1.734961,-2.15229 -2.749197,-1.13806 -1.014236,1.01424 -0.296334,2.74779 1.138414,2.74779 0.891469,0.004 1.613605,-0.71932 1.610783,-1.60973 z"
       style="fill:currentColor;fill-opacity:1;fill-rule:nonzero;stroke:none;stroke-width:0.352778"
       id="path64" />
    <path
       d="m 12.089923,-102.53213 c 0,-1.43581 -1.73743,-2.15371 -2.7502552,-1.137 -1.0142361,1.01705 -0.2896305,2.75202 1.1465282,2.74672 0.885825,-0.004 1.603727,-0.72354 1.603727,-1.60972 z"
       style="fill:currentColor;fill-opacity:1;fill-rule:nonzero;stroke:none;stroke-width:0.352778"
       id="path66" />
    <path
       d="m 53.349753,-47.698472 c -0.581378,0 -1.1176,0.315384 -1.402644,0.822678 1.988608,0.456142 3.006724,0.782461 3.006724,0.782461 -0.0035,-0.884414 -0.719313,-1.601258 -1.60408,-1.605139 z"
       style="fill:currentColor;fill-opacity:1;fill-rule:nonzero;stroke:none;stroke-width:0.352778"
       id="path68" />
    <path
       d="m 53.349753,-44.483608 c 0.887589,-0.0035 1.60408,-0.722136 1.60408,-1.609725 h -3.19158 c 0,0.880886 0.706967,1.597378 1.5875,1.609725 z"
       style="fill:currentColor;fill-opacity:1;fill-rule:nonzero;stroke:none;stroke-width:0.352778"
       id="path70" />
    <path
       d="m -96.954038,-31.437886 c 1.190625,-0.08678 2.411589,-0.129469 3.665361,-0.129469 10.641541,0 19.273308,3.096683 19.273308,6.91515 0,1.271764 -0.963084,2.465211 -2.640189,3.490383 9.542991,0.5969 14.604294,5.016147 14.604294,5.016147 h -25.082852 l 11.113911,17.3136274 21.586824,-19.2733074 27.128258,32.65699 C -6.8440124,2.3585774 5.6848901,-19.708025 5.6711318,-43.525816 c 0,-0.850194 0,-1.689453 -0.056444,-2.545292 H -44.878042 l -21.857052,-0.180622 c 6.154208,-2.72415 16.57491,-4.103864 28.117446,-4.706055 -0.51823,-0.321028 -0.799394,-0.658636 -0.799394,-1.002948 0,-2.640541 16.125824,-4.786136 36.0344851,-4.786136 2.6804055,0 5.2874332,0.04022 7.8037971,0.113242 -0.1806223,-0.889 -0.3721806,-1.773766 -0.5623278,-2.645833 -0.3940528,-1.652411 -0.8473722,-3.273072 -1.3571361,-4.864453 -0.1185333,-0.388761 -0.2427111,-0.771878 -0.3721805,-1.154994 -8.888236,-26.113669 -32.7420108,-44.214343 -60.2851348,-45.746813 -27.542772,-1.53105 -53.257101,13.81478 -64.985541,38.782274 z"
       style="fill:currentColor;fill-opacity:1;fill-rule:nonzero;stroke:none;stroke-width:0.352778"
       id="path72" />
  </g>
</svg>
