<?xml version="1.0" encoding="UTF-8" standalone="no"?>
<svg
   xmlns:dc="http://purl.org/dc/elements/1.1/"
   xmlns:cc="http://creativecommons.org/ns#"
   xmlns:rdf="http://www.w3.org/1999/02/22-rdf-syntax-ns#"
   xmlns:svg="http://www.w3.org/2000/svg"
   xmlns="http://www.w3.org/2000/svg"
   xmlns:sodipodi="http://sodipodi.sourceforge.net/DTD/sodipodi-0.dtd"
   xmlns:inkscape="http://www.inkscape.org/namespaces/inkscape"
   width="695.46716mm"
   height="99.824966mm"
   viewBox="0 0 695.46717 99.824967"
   version="1.1"
   id="svg1733"
   sodipodi:docname="logo_text.svg"
   inkscape:version="1.0.2 (e86c870879, 2021-01-15, custom)">
  <defs
     id="defs1727" />
  <sodipodi:namedview
     id="base"
     pagecolor="#ffffff"
     bordercolor="#666666"
     borderopacity="1.0"
     inkscape:pageopacity="0.0"
     inkscape:pageshadow="2"
     inkscape:zoom="0.49497475"
     inkscape:cx="1234.8175"
     inkscape:cy="409.67919"
     inkscape:document-units="mm"
     inkscape:current-layer="layer1"
     inkscape:document-rotation="0"
     showgrid="false"
     inkscape:snap-bbox="true"
     inkscape:window-width="1920"
     inkscape:window-height="1017"
     inkscape:window-x="1912"
     inkscape:window-y="-8"
     inkscape:window-maximized="1"
     showguides="true"
     inkscape:guide-bbox="true">
    <sodipodi:guide
       position="19.99834,32.65396"
       orientation="1,0"
       id="guide2344" />
  </sodipodi:namedview>
  <metadata
     id="metadata1730">
    <rdf:RDF>
      <cc:Work
         rdf:about="">
        <dc:format>image/svg+xml</dc:format>
        <dc:type
           rdf:resource="http://purl.org/dc/dcmitype/StillImage" />
      </cc:Work>
    </rdf:RDF>
  </metadata>
  <g
     inkscape:label="Layer 1"
     inkscape:groupmode="layer"
     id="layer1"
     transform="translate(459.97597,-45.216233)">
    <path
       d="m -447.67807,46.087241 4.63021,35.095744 0.0882,1.328561 c 0.21661,2.932289 0.33902,4.858808 0.36936,5.776736 0.0289,-1.557161 0.16686,-3.926064 0.41346,-7.105297 l 5.03801,-32.345135 h 5.3139 l 4.90572,31.93168 c 0.30445,3.392663 0.48648,5.898091 0.54575,7.518752 0,-0.216605 0.0138,-1.041753 0.0441,-2.475089 0.0332,-1.435805 0.18732,-3.147483 0.46284,-5.131858 l 4.53673,-34.594094 h 6.87352 l -8.9849,66.299999 h -5.53967 l -5.13186,-36.016496 c -0.1845,-2.196395 -0.30727,-4.365625 -0.369,-6.504164 -0.0303,1.069269 -0.1517,3.22333 -0.36407,6.460066 l -5.13186,36.060594 h -5.58906 l -8.98489,-66.299999 z"
       style="fill:#fff2c3;fill-opacity:1;fill-rule:nonzero;stroke:none;stroke-width:0.352778"
       id="path138" />
    <path
       d="m -365.38031,98.502257 c 0,4.674303 -1.09396,8.349543 -3.27942,11.024303 -2.18299,2.67194 -5.3661,4.0072 -9.54723,4.0072 -4.21957,0 -7.41256,-1.33526 -9.58003,-4.0072 -2.16923,-2.67476 -3.25226,-6.35 -3.25226,-11.024303 V 60.242449 c 0,-4.670424 1.08303,-8.34143 3.25226,-11.013369 2.16747,-2.674761 5.36046,-4.012847 9.58003,-4.012847 8.55063,0 12.82665,5.009092 12.82665,15.026216 z m -8.65928,7.424913 c 1.21955,-1.52823 1.82986,-4.00332 1.82986,-7.424913 V 60.242449 c 0,-6.136569 -1.99955,-9.205383 -5.99723,-9.205383 -1.95544,0 -3.44522,0.719314 -4.4704,2.15512 -1.02235,1.433336 -1.53246,3.784247 -1.53246,7.050263 v 38.259808 c 0,3.271313 0.51011,5.625043 1.53246,7.060843 1.02518,1.43334 2.51496,2.14983 4.4704,2.14983 1.86302,0 3.25226,-0.59513 4.16737,-1.78576 z"
       style="fill:#fff2c3;fill-opacity:1;fill-rule:nonzero;stroke:none;stroke-width:0.352778"
       id="path140" />
    <path
       d="m -313.6017,98.502257 c 0,4.674303 -1.09432,8.349543 -3.27978,11.024303 -2.18299,2.67194 -5.3661,4.0072 -9.54687,4.0072 -4.21958,0 -7.41257,-1.33526 -9.58039,-4.0072 -2.16888,-2.67476 -3.25226,-6.35 -3.25226,-11.024303 V 60.242449 c 0,-4.670424 1.08338,-8.34143 3.25226,-11.013369 2.16782,-2.674761 5.36081,-4.012847 9.58039,-4.012847 8.55063,0 12.82665,5.009092 12.82665,15.026216 z m -8.65964,7.424913 c 1.21955,-1.52823 1.83021,-4.00332 1.83021,-7.424913 V 60.242449 c 0,-6.136569 -1.99954,-9.205383 -5.99722,-9.205383 -1.95545,0 -3.44523,0.719314 -4.4704,2.15512 -1.0227,1.433336 -1.53247,3.784247 -1.53247,7.050263 v 38.259808 c 0,3.271313 0.50977,5.625043 1.53247,7.060843 1.02517,1.43334 2.51495,2.14983 4.4704,2.14983 1.86302,0 3.2519,-0.59513 4.16701,-1.78576 z"
       style="fill:#fff2c3;fill-opacity:1;fill-rule:nonzero;stroke:none;stroke-width:0.352778"
       id="path142" />
    <path
       d="m -274.19396,46.087241 c 4.30636,0 7.44397,1.680987 9.41458,5.043664 1.96921,3.359503 2.95452,8.030986 2.95452,14.017272 v 28.178125 c 0,5.986286 -0.99484,10.660588 -2.98203,14.022918 -1.98438,3.3595 -5.11387,5.03802 -9.38707,5.03802 h -12.83229 V 46.087241 Z m -6.46042,5.815189 v 54.66397 h 6.00287 c 1.55434,0 2.85115,-0.83925 3.89149,-2.51883 1.403,-2.32198 2.10573,-5.895269 2.10573,-10.721268 V 65.148177 c 0,-8.83038 -1.99954,-13.245747 -5.99722,-13.245747 z"
       style="fill:#fff2c3;fill-opacity:1;fill-rule:nonzero;stroke:none;stroke-width:0.352778"
       id="path144" />
    <path
       d="m -228.92551,106.61615 h 17.27517 v 5.77109 h -24.05521 V 46.175436 h 6.78004 z"
       style="fill:#fff2c3;fill-opacity:1;fill-rule:nonzero;stroke:none;stroke-width:0.352778"
       id="path146" />
    <path
       d="m -171.97095,93.921438 -4.39879,-21.442186 c -0.0924,-0.430036 -0.23036,-1.467556 -0.41346,-3.114322 -0.18485,-1.557161 -0.32244,-2.580922 -0.41345,-3.070225 l -0.36372,3.114322 c -0.18485,1.5875 -0.32243,2.640189 -0.41345,3.158419 l -3.48368,21.353992 z m 1.10243,5.820833 h -11.68577 l -2.47509,12.644969 h -6.87352 l 12.46293,-66.299999 h 5.45148 l 12.46293,66.299999 h -6.87352 z"
       style="fill:#fff2c3;fill-opacity:1;fill-rule:nonzero;stroke:none;stroke-width:0.352778"
       id="path148" />
    <path
       d="m -120.83335,86.226649 0.68898,3.709811 V 46.087241 h 6.82378 v 66.299999 h -5.58906 l -11.95599,-39.494532 -0.87101,-4.354689 v 43.849221 h -6.82942 V 46.087241 h 5.58941 z"
       style="fill:#fff2c3;fill-opacity:1;fill-rule:nonzero;stroke:none;stroke-width:0.352778"
       id="path150" />
    <path
       d="m -73.865926,46.087241 c 4.306358,0 7.444316,1.680987 9.414933,5.043664 1.969205,3.359503 2.954514,8.030986 2.954514,14.017272 v 28.178125 c 0,5.986286 -0.995187,10.660588 -2.982031,14.022918 -1.984375,3.3595 -5.113867,5.03802 -9.387416,5.03802 H -86.698218 V 46.087241 Z m -6.460067,5.815189 v 54.66397 h 6.002514 c 1.554691,0 2.85115,-0.83925 3.891844,-2.51883 1.402645,-2.32198 2.105378,-5.895269 2.105378,-10.721268 V 65.148177 c 0,-8.83038 -1.999544,-13.245747 -5.997222,-13.245747 z"
       style="fill:#fff2c3;fill-opacity:1;fill-rule:nonzero;stroke:none;stroke-width:0.352778"
       id="path152" />
    <path
       d="M 10.029213,112.38724 H 3.1994358 V 46.087241 H 16.031727 c 8.550981,0 12.827,5.009092 12.827,15.025864 v 10.082036 c 0,4.645378 -1.094317,8.304036 -3.279775,10.974564 -2.182989,2.671938 -5.366103,4.007202 -9.547225,4.007202 h -6.002514 z m 0,-60.48481 v 28.459288 h 6.002514 c 1.954036,0 3.442406,-0.717902 4.465108,-2.155119 1.020939,-1.436158 1.532114,-3.773311 1.532114,-7.011458 V 61.113105 c 0,-6.14045 -1.999544,-9.210675 -5.997222,-9.210675 z"
       style="fill:#fff2c3;fill-opacity:1;fill-rule:nonzero;stroke:none;stroke-width:0.352778"
       id="path154" />
    <path
       d="m 78.252906,98.502257 c 0,4.674303 -1.093964,8.349543 -3.279422,11.024303 -2.182989,2.67194 -5.366102,4.0072 -9.547225,4.0072 -4.219575,0 -7.412566,-1.33526 -9.580033,-4.0072 -2.16923,-2.67476 -3.252258,-6.35 -3.252258,-11.024303 V 60.242449 c 0,-4.670424 1.083028,-8.34143 3.252258,-11.013369 2.167467,-2.674761 5.360458,-4.012847 9.580033,-4.012847 8.550628,0 12.826647,5.009092 12.826647,15.026216 z m -8.659283,7.424913 c 1.219553,-1.52823 1.829858,-4.00332 1.829858,-7.424913 V 60.242449 c 0,-6.136569 -1.999544,-9.205383 -5.997222,-9.205383 -1.955447,0 -3.445227,0.719314 -4.470399,2.15512 -1.02235,1.433336 -1.532467,3.784247 -1.532467,7.050263 v 38.259808 c 0,3.271313 0.510117,5.625043 1.532467,7.060843 1.025172,1.43334 2.514952,2.14983 4.470399,2.14983 1.86302,0 3.252259,-0.59513 4.167364,-1.78576 z"
       style="fill:#fff2c3;fill-opacity:1;fill-rule:nonzero;stroke:none;stroke-width:0.352778"
       id="path156" />
    <path
       d="m 130.03151,98.502257 c 0,4.674303 -1.09432,8.349543 -3.27977,11.024303 -2.18299,2.67194 -5.36611,4.0072 -9.54723,4.0072 -4.21922,0 -7.41221,-1.33526 -9.58003,-4.0072 -2.16888,-2.67476 -3.25226,-6.35 -3.25226,-11.024303 V 60.242449 c 0,-4.670424 1.08338,-8.34143 3.25226,-11.013369 2.16782,-2.674761 5.36081,-4.012847 9.58003,-4.012847 8.55098,0 12.827,5.009092 12.827,15.026216 z m -8.65964,7.424913 c 1.21956,-1.52823 1.82986,-4.00332 1.82986,-7.424913 V 60.242449 c 0,-6.136569 -1.99954,-9.205383 -5.99722,-9.205383 -1.95509,0 -3.44487,0.719314 -4.47005,2.15512 -1.0227,1.433336 -1.53246,3.784247 -1.53246,7.050263 v 38.259808 c 0,3.271313 0.50976,5.625043 1.53246,7.060843 1.02518,1.43334 2.51496,2.14983 4.47005,2.14983 1.86337,0 3.25226,-0.59513 4.16736,-1.78576 z"
       style="fill:#fff2c3;fill-opacity:1;fill-rule:nonzero;stroke:none;stroke-width:0.352778"
       id="path158" />
    <path
       d="m 162.92945,106.61615 h 17.27482 v 5.77109 H 156.14941 V 46.175436 h 6.78004 z"
       style="fill:#fff2c3;fill-opacity:1;fill-rule:nonzero;stroke:none;stroke-width:0.352778"
       id="path160" />
    <path
       d="m 209.99071,96.898176 c 0,2.1717 0.10619,3.861154 0.31962,5.065534 0.21237,1.2058 0.56373,2.25178 1.05304,3.13655 0.79375,1.43722 2.41159,2.15512 4.85598,2.15512 1.77095,0 3.09245,-0.3429 3.96346,-1.03082 0.87066,-0.68615 1.46615,-1.83797 1.78576,-3.45581 0.32244,-1.62066 0.48507,-4.035071 0.48507,-7.243232 0,-3.298825 -0.68897,-6.002514 -2.06692,-8.108244 -1.37548,-2.108553 -3.43676,-4.003322 -6.18455,-5.682897 -2.47368,-1.528234 -4.50356,-3.109031 -6.09106,-4.740628 -1.5875,-1.634419 -2.80988,-3.567641 -3.66571,-5.798608 -0.8569,-2.229908 -1.28412,-4.886678 -1.28412,-7.970661 0,-4.092928 0.31962,-7.408333 0.95885,-9.9441 0.64241,-2.535414 1.90324,-4.511675 3.78143,-5.9309 1.88101,-1.422047 4.65384,-2.133247 8.31779,-2.133247 3.5747,0 6.29497,0.534811 8.15799,1.604081 1.86337,1.069269 3.14466,2.750608 3.84775,5.043663 0.70132,2.290234 1.05269,5.465234 1.05269,9.525 h -6.82414 c 0,-2.350911 -0.10865,-4.076347 -0.32526,-5.175955 -0.21343,-1.098197 -0.5648,-2.107142 -1.05269,-3.026128 -0.79375,-1.433336 -2.413,-2.149828 -4.85634,-2.149828 -1.772,0 -3.09209,0.351367 -3.9631,1.052689 -0.87101,0.703086 -1.46615,1.893711 -1.78612,3.571875 -0.31961,1.679928 -0.47942,4.200525 -0.47942,7.56285 0,3.296355 0.68615,6.000044 2.06163,8.108244 1.37372,2.109964 3.43535,4.004733 6.18455,5.68325 2.47227,1.525411 4.50356,3.105856 6.09106,4.740275 1.59032,1.635831 2.81234,3.569053 3.66536,5.798961 0.85584,2.226733 1.28447,4.883503 1.28447,7.970308 0,4.03225 -0.31433,7.247112 -0.94263,9.646352 -0.62547,2.39642 -1.88383,4.23757 -3.77578,5.52309 -1.89336,1.28306 -4.67289,1.9237 -8.34002,1.9237 -3.57187,0 -6.29214,-0.50271 -8.15798,-1.51024 -1.86302,-1.01 -3.14607,-2.61409 -3.8474,-4.81189 -0.70273,-2.20098 -1.05269,-5.3333 -1.05269,-9.398354 z"
       style="fill:#fff2c3;fill-opacity:1;fill-rule:nonzero;stroke:none;stroke-width:0.352778"
       id="path162" />
    <path
       d="m -434.42893,144.16487 c -0.26228,0.13618 -0.56055,0.25894 -0.89583,0.36936 -0.33288,0.10725 -0.68912,0.19826 -1.07077,0.27552 -0.38174,0.073 -0.77945,0.12947 -1.19302,0.17075 -0.41088,0.0399 -0.82177,0.0607 -1.23544,0.0607 -1.04298,0 -1.95465,-0.11288 -2.73545,-0.33619 -0.78203,-0.22331 -1.43144,-0.59655 -1.95093,-1.11901 -0.51946,-0.5207 -0.90937,-1.21003 -1.16655,-2.06693 -0.2545,-0.86007 -0.38174,-1.92934 -0.38174,-3.20816 0,-1.32997 0.13406,-2.44757 0.40309,-3.35139 0.26776,-0.90664 0.6522,-1.63865 1.15021,-2.19392 0.5012,-0.55386 1.10954,-0.95356 1.82378,-1.19592 0.71328,-0.24271 1.51233,-0.36407 2.3965,-0.36407 0.37357,0 0.75425,0.0208 1.13975,0.0607 0.38443,0.0413 0.76472,0.10195 1.14002,0.18203 0.37356,0.0811 0.73694,0.18168 1.08683,0.30304 0.34981,0.12136 0.67586,0.25929 0.98056,0.41346 l -0.68913,1.81363 c -0.6043,-0.29775 -1.2008,-0.51012 -1.78645,-0.63959 -0.58727,-0.13229 -1.14407,-0.19826 -1.67007,-0.19826 -0.59372,0 -1.10809,0.0977 -1.54273,0.2921 -0.43232,0.19579 -0.78858,0.49318 -1.07087,0.89288 -0.27988,0.40111 -0.48657,0.90946 -0.62056,1.52682 -0.13503,0.61736 -0.2012,1.34514 -0.2012,2.18299 0,0.88583 0.0693,1.64677 0.2066,2.28177 0.13772,0.63676 0.35249,1.16169 0.64671,1.57656 0.29691,0.41628 0.67354,0.72073 1.12924,0.91511 0.456,0.19579 1.00461,0.2921 1.64903,0.2921 0.3247,0 0.65449,-0.0233 0.99141,-0.0716 0.33519,-0.0512 0.67587,-0.11853 1.02297,-0.2039 v -3.23004 h -2.04632 v -1.88524 h 4.49036 z"
       style="fill:#efebff;fill-opacity:1;fill-rule:nonzero;stroke:none;stroke-width:0.345975"
       id="path74" />
    <path
       d="m -419.40027,131.43736 c 0.57918,0 1.11359,0.0769 1.60116,0.23142 0.48792,0.15134 0.90933,0.37888 1.26697,0.68333 0.36067,0.30198 0.63889,0.68651 0.83774,1.15217 0.20153,0.46708 0.30231,1.00859 0.30231,1.62596 0,0.50447 -0.0821,0.96343 -0.24395,1.3783 -0.15914,0.41592 -0.38579,0.77717 -0.67863,1.08585 -0.29417,0.30586 -0.64025,0.55527 -1.03893,0.74965 -0.40038,0.19156 -0.84045,0.31821 -1.32023,0.3803 l -0.0105,0.0275 c 0.23582,0.14323 0.46789,0.34467 0.69454,0.60078 0.22904,0.25788 0.44788,0.53869 0.65724,0.84349 0.21207,0.30163 0.41496,0.61031 0.60972,0.92605 0.1934,0.31679 0.37257,0.60889 0.53543,0.8763 l 1.7708,2.81657 h -2.82062 c -0.20934,-0.35948 -0.4438,-0.7687 -0.70507,-1.22907 -0.25819,-0.46285 -0.51673,-0.92322 -0.77394,-1.3836 -0.25855,-0.45896 -0.50216,-0.88476 -0.73153,-1.27882 -0.23073,-0.39264 -0.41768,-0.70132 -0.56222,-0.92604 -0.13777,-0.20532 -0.26501,-0.37747 -0.38139,-0.51823 -0.1167,-0.14323 -0.23614,-0.25894 -0.35529,-0.34713 -0.11666,-0.0882 -0.24256,-0.15029 -0.37665,-0.18733 -0.13502,-0.036 -0.28496,-0.0579 -0.45059,-0.0663 h -0.0741 v 5.93654 h -2.49694 v -13.37768 z m -0.95956,5.65538 c 0.38851,0 0.73291,-0.0303 1.03386,-0.0938 0.2996,-0.066 0.55273,-0.17357 0.75801,-0.32526 0.20834,-0.15417 0.36611,-0.35419 0.47196,-0.60078 0.10858,-0.24942 0.16456,-0.55386 0.16456,-0.91511 0,-0.35948 -0.0561,-0.66251 -0.16456,-0.90946 -0.10585,-0.24941 -0.26362,-0.44908 -0.47196,-0.60078 -0.20528,-0.15028 -0.45841,-0.25894 -0.75801,-0.32526 -0.30095,-0.066 -0.64535,-0.0991 -1.03386,-0.0991 h -1.2883 v 3.86962 z"
       style="fill:#efebff;fill-opacity:1;fill-rule:nonzero;stroke:none;stroke-width:0.345975"
       id="path76" />
    <path
       d="m -399.61862,131.2331 c 1.07356,0 1.98017,0.16969 2.71984,0.50729 0.73833,0.33902 1.33855,0.81316 1.80238,1.42205 0.46281,0.60643 0.79533,1.33385 0.99687,2.18299 0.20394,0.84596 0.3074,1.77483 0.3074,2.78906 0,1.01847 -0.10346,1.95122 -0.3074,2.8 -0.20154,0.84631 -0.53406,1.57374 -0.99687,2.18299 -0.46383,0.60642 -1.06405,1.07914 -1.80238,1.41675 -0.73967,0.33761 -1.64628,0.50694 -2.71984,0.50694 -1.05761,0 -1.95505,-0.16404 -2.69304,-0.49071 -0.73967,-0.33055 -1.34025,-0.79622 -1.80271,-1.39982 -0.46383,-0.60219 -0.8004,-1.32856 -1.01249,-2.17735 -0.20932,-0.84878 -0.31283,-1.79422 -0.31283,-2.8388 0,-1.03893 0.10351,-1.98437 0.31283,-2.83316 0.21209,-0.8516 0.54866,-1.57797 1.01249,-2.17734 0.46246,-0.60219 1.06304,-1.0668 1.80271,-1.39453 0.73799,-0.33091 1.63543,-0.49636 2.69304,-0.49636 z m 0,1.90747 c -0.62567,0 -1.14921,0.10724 -1.56927,0.31962 -0.42141,0.20955 -0.75801,0.52352 -1.01248,0.94262 -0.25175,0.41875 -0.43228,0.94121 -0.54084,1.56527 -0.10588,0.6216 -0.15913,1.34373 -0.15913,2.16641 0,0.82691 0.0533,1.55293 0.15913,2.17735 0.10856,0.62159 0.28909,1.14088 0.54084,1.55998 0.25447,0.41875 0.59107,0.73589 1.01248,0.94791 0.42006,0.20955 0.9436,0.31433 1.56927,0.31433 0.6216,0 1.14243,-0.10478 1.56419,-0.31433 0.42005,-0.20955 0.75527,-0.5207 1.00704,-0.93697 0.2545,-0.41487 0.436,-0.93416 0.54629,-1.55999 0.10858,-0.6283 0.1642,-1.35749 0.1642,-2.18828 0,-0.82973 -0.0558,-1.55716 -0.1642,-2.18299 -0.11029,-0.62829 -0.29179,-1.14899 -0.54629,-1.56527 -0.25177,-0.41487 -0.58699,-0.72496 -1.00704,-0.93169 -0.42176,-0.2092 -0.94259,-0.31397 -1.56419,-0.31397 z"
       style="fill:#efebff;fill-opacity:1;fill-rule:nonzero;stroke:none;stroke-width:0.345975"
       id="path78" />
    <path
       d="m -369.23514,131.44829 -1.46849,13.36675 h -3.27121 l -2.96348,-10.71562 -2.95836,10.71562 h -3.2763 l -1.46849,-13.36675 h 2.4545 l 1.05524,10.03759 h 0.0156 l 2.77278,-10.03759 h 2.81009 l 2.77244,10.03759 h 0.0214 l 1.05487,-10.03759 z"
       style="fill:#efebff;fill-opacity:1;fill-rule:nonzero;stroke:none;stroke-width:0.345975"
       id="path80" />
    <path
       d="m -336.7232,131.43736 -4.42687,7.34765 v 6.03003 h -2.50744 v -6.03003 l -4.42688,-7.34765 h 2.71985 l 2.95804,5.61128 2.96381,-5.61128 z"
       style="fill:#efebff;fill-opacity:1;fill-rule:nonzero;stroke:none;stroke-width:0.345975"
       id="path82" />
    <path
       d="m -321.84142,131.2331 c 1.07356,0 1.98017,0.16969 2.71953,0.50729 0.73831,0.33902 1.33887,0.81316 1.80269,1.42205 0.46247,0.60643 0.79534,1.33385 0.99654,2.18299 0.20426,0.84596 0.30775,1.77483 0.30775,2.78906 0,1.01847 -0.10349,1.95122 -0.30775,2.8 -0.2012,0.84631 -0.53407,1.57374 -0.99654,2.18299 -0.46382,0.60642 -1.06438,1.07914 -1.80269,1.41675 -0.73936,0.33761 -1.64597,0.50694 -2.71953,0.50694 -1.05759,0 -1.95504,-0.16404 -2.69337,-0.49071 -0.73933,-0.33055 -1.3399,-0.79622 -1.80236,-1.39982 -0.46383,-0.60219 -0.80075,-1.32856 -1.01282,-2.17735 -0.20936,-0.84878 -0.31283,-1.79422 -0.31283,-2.8388 0,-1.03893 0.10347,-1.98437 0.31283,-2.83316 0.21207,-0.8516 0.54899,-1.57797 1.01282,-2.17734 0.46246,-0.60219 1.06303,-1.0668 1.80236,-1.39453 0.73833,-0.33091 1.63578,-0.49636 2.69337,-0.49636 z m 0,1.90747 c -0.62567,0 -1.1492,0.10724 -1.56926,0.31962 -0.42142,0.20955 -0.75834,0.52352 -1.01283,0.94262 -0.25175,0.41875 -0.43193,0.94121 -0.54048,1.56527 -0.10621,0.6216 -0.15914,1.34373 -0.15914,2.16641 0,0.82691 0.053,1.55293 0.15914,2.17735 0.10855,0.62159 0.28873,1.14088 0.54048,1.55998 0.25449,0.41875 0.59141,0.73589 1.01283,0.94791 0.42006,0.20955 0.94359,0.31433 1.56926,0.31433 0.62161,0 1.14245,-0.10478 1.56386,-0.31433 0.42006,-0.20955 0.75561,-0.5207 1.00738,-0.93697 0.25448,-0.41487 0.436,-0.93416 0.54593,-1.55999 0.10893,-0.6283 0.16457,-1.35749 0.16457,-2.18828 0,-0.82973 -0.0558,-1.55716 -0.16457,-2.18299 -0.10993,-0.62829 -0.29145,-1.14899 -0.54593,-1.56527 -0.25177,-0.41487 -0.58732,-0.72496 -1.00738,-0.93169 -0.42141,-0.2092 -0.94225,-0.31397 -1.56386,-0.31397 z"
       style="fill:#efebff;fill-opacity:1;fill-rule:nonzero;stroke:none;stroke-width:0.345975"
       id="path84" />
    <path
       d="m -295.29508,131.43736 v 7.49653 c 0,0.97013 -0.0954,1.83409 -0.28638,2.59044 -0.19068,0.75389 -0.5008,1.39206 -0.92765,1.91276 -0.42412,0.52247 -0.97957,0.91934 -1.66462,1.19063 -0.68266,0.2674 -1.51499,0.40252 -2.49726,0.40252 -1.00468,0 -1.84751,-0.14076 -2.52882,-0.4191 -0.68266,-0.27834 -1.23405,-0.68051 -1.65409,-1.20721 -0.42142,-0.52916 -0.72374,-1.16981 -0.90663,-1.92369 -0.18016,-0.75248 -0.27041,-1.60126 -0.27041,-2.54635 v -7.49653 h 2.53966 v 7.81614 c 0,0.58844 0.0489,1.11901 0.14828,1.59279 0.0981,0.47414 0.25991,0.87948 0.48249,1.21285 0.2253,0.33056 0.51711,0.58703 0.87473,0.76624 0.3566,0.18062 0.79531,0.26987 1.31479,0.26987 0.53034,0 0.97686,-0.0892 1.34126,-0.26987 0.36341,-0.17921 0.65487,-0.43674 0.87472,-0.77188 0.22293,-0.33338 0.38206,-0.73836 0.4774,-1.2125 0.0954,-0.47695 0.14317,-1.00612 0.14317,-1.5875 v -7.81614 z"
       style="fill:#efebff;fill-opacity:1;fill-rule:nonzero;stroke:none;stroke-width:0.345975"
       id="path86" />
    <path
       d="m -280.03973,131.43736 c 0.57919,0 1.11328,0.0769 1.60117,0.23142 0.48758,0.15134 0.90899,0.37888 1.26694,0.68333 0.36071,0.30198 0.63892,0.68651 0.83776,1.15217 0.20154,0.46708 0.30198,1.00859 0.30198,1.62596 0,0.50447 -0.0822,0.96343 -0.24362,1.3783 -0.15913,0.41592 -0.38579,0.77717 -0.67862,1.08585 -0.29451,0.30586 -0.64026,0.55527 -1.03927,0.74965 -0.40003,0.19156 -0.84011,0.31821 -1.31987,0.3803 l -0.0109,0.0275 c 0.23616,0.14323 0.4679,0.34467 0.69455,0.60078 0.22936,0.25788 0.44788,0.53869 0.65756,0.84349 0.21207,0.30163 0.41464,0.61031 0.60974,0.92605 0.19339,0.31679 0.3722,0.60889 0.53541,0.8763 l 1.77048,2.81657 h -2.82029 c -0.20932,-0.35948 -0.44414,-0.7687 -0.70507,-1.22907 -0.25854,-0.46285 -0.5171,-0.92322 -0.77394,-1.3836 -0.25854,-0.45896 -0.50251,-0.88476 -0.73188,-1.27882 -0.23037,-0.39264 -0.41733,-0.70132 -0.56188,-0.92604 -0.13775,-0.20532 -0.265,-0.37747 -0.38171,-0.51823 -0.11672,-0.14323 -0.23581,-0.25894 -0.35525,-0.34713 -0.11672,-0.0882 -0.2426,-0.15029 -0.37628,-0.18733 -0.13538,-0.036 -0.28503,-0.0579 -0.4506,-0.0663 h -0.0744 v 5.93654 h -2.49692 v -13.37768 z m -0.95953,5.65538 c 0.38815,0 0.73288,-0.0303 1.03384,-0.0938 0.29959,-0.066 0.55275,-0.17357 0.75802,-0.32526 0.20796,-0.15417 0.36575,-0.35419 0.47195,-0.60078 0.10859,-0.24942 0.16422,-0.55386 0.16422,-0.91511 0,-0.35948 -0.0557,-0.66251 -0.16422,-0.90946 -0.1062,-0.24941 -0.26399,-0.44908 -0.47195,-0.60078 -0.20527,-0.15028 -0.45843,-0.25894 -0.75802,-0.32526 -0.30096,-0.066 -0.64569,-0.0991 -1.03384,-0.0991 h -1.28834 v 3.86962 z"
       style="fill:#efebff;fill-opacity:1;fill-rule:nonzero;stroke:none;stroke-width:0.345975"
       id="path88" />
    <path
       d="m -252.83719,131.43736 h 2.49692 v 13.37804 h -2.49692 z"
       style="fill:#efebff;fill-opacity:1;fill-rule:nonzero;stroke:none;stroke-width:0.345975"
       id="path90" />
    <path
       d="m -228.63546,131.43736 v 13.37768 h -2.76735 l -5.62494,-9.99878 v 9.99878 h -2.49725 v -13.37768 h 2.76734 l 5.62528,9.99878 v -9.99878 z"
       style="fill:#efebff;fill-opacity:1;fill-rule:nonzero;stroke:none;stroke-width:0.345975"
       id="path92" />
    <path
       d="m -207.13625,131.43736 -4.57006,13.39426 h -2.31675 l -4.5806,-13.39426 h 2.56615 l 3.17554,10.50607 3.15993,-10.50607 z"
       style="fill:#efebff;fill-opacity:1;fill-rule:nonzero;stroke:none;stroke-width:0.345975"
       id="path94" />
    <path
       d="m -189.39584,131.43736 v 1.90711 h -5.19539 v 3.03178 h 3.67938 v 1.90711 h -3.67938 v 4.62457 h 5.38643 v 1.90711 h -7.88371 v -13.37768 z"
       style="fill:#efebff;fill-opacity:1;fill-rule:nonzero;stroke:none;stroke-width:0.345975"
       id="path96" />
    <path
       d="m -179.08003,142.50012 c 0.49436,0.19826 1.023,0.36371 1.58522,0.496 0.5646,0.13229 1.17804,0.19862 1.83934,0.19862 0.43092,0 0.82452,-0.0402 1.18248,-0.12136 0.35661,-0.0801 0.66401,-0.20673 0.92256,-0.38029 0.26093,-0.17216 0.46382,-0.39265 0.60939,-0.66146 0.14861,-0.27164 0.22292,-0.5969 0.22292,-0.97579 0,-0.40781 -0.0798,-0.73307 -0.23853,-0.97543 -0.15913,-0.24271 -0.3817,-0.44097 -0.66808,-0.59549 -0.28636,-0.15416 -0.63347,-0.28398 -1.03928,-0.39123 -0.40275,-0.10618 -0.85198,-0.2233 -1.34636,-0.35277 -0.55545,-0.14605 -1.06032,-0.31574 -1.51634,-0.5073 -0.45601,-0.19438 -0.84691,-0.44238 -1.17159,-0.74401 -0.32235,-0.30444 -0.57275,-0.67945 -0.75293,-1.12465 -0.17745,-0.44768 -0.26499,-1.00048 -0.26499,-1.65912 0,-0.44097 0.0702,-0.83361 0.21206,-1.17968 0.14048,-0.34855 0.3298,-0.65159 0.56731,-0.90947 0.23989,-0.25611 0.51541,-0.47519 0.82688,-0.65581 0.3142,-0.17921 0.64298,-0.32526 0.98601,-0.43533 0.34201,-0.11324 0.69185,-0.19438 1.04981,-0.24271 0.3566,-0.0508 0.6959,-0.0773 1.0179,-0.0773 0.22937,0 0.50351,0.0138 0.82179,0.0388 0.31792,0.0261 0.65723,0.0716 1.0179,0.13758 0.36035,0.0635 0.7329,0.14746 1.11868,0.25365 0.38444,0.10336 0.75529,0.23565 1.11326,0.39687 l -0.63618,1.62067 c -0.47708,-0.17922 -0.97416,-0.32527 -1.48989,-0.43569 -0.51676,-0.11288 -1.05762,-0.17074 -1.62221,-0.17074 -0.35762,0 -0.68641,0.0303 -0.98601,0.0882 -0.29688,0.0593 -0.55544,0.15452 -0.77394,0.28681 -0.21614,0.12947 -0.38443,0.30022 -0.50385,0.51259 -0.12048,0.2092 -0.1802,0.46284 -0.1802,0.76059 0,0.38594 0.0715,0.68756 0.21751,0.90381 0.14827,0.21802 0.35762,0.39441 0.63077,0.52917 0.27583,0.13653 0.61107,0.25224 1.00738,0.34749 0.39902,0.0963 0.84961,0.21202 1.35177,0.34713 0.54729,0.1517 1.05116,0.32808 1.51092,0.52917 0.46282,0.20249 0.86149,0.46319 1.19842,0.78281 0.3393,0.3168 0.60429,0.7112 0.79499,1.18498 0.19101,0.47131 0.28635,1.05022 0.28635,1.73637 0,0.61066 -0.094,1.13277 -0.28093,1.56563 -0.18426,0.43392 -0.42414,0.79763 -0.72102,1.09114 -0.29689,0.29493 -0.63621,0.52917 -1.0179,0.70556 -0.38173,0.17392 -0.77123,0.30621 -1.16652,0.39687 -0.39224,0.091 -0.77396,0.1517 -1.14515,0.18204 -0.36815,0.0289 -0.69319,0.0441 -0.97549,0.0441 -0.27281,-0.008 -0.5802,-0.0275 -0.92222,-0.0607 -0.34339,-0.0303 -0.70372,-0.0797 -1.0817,-0.14888 -0.37493,-0.066 -0.75529,-0.15557 -1.13972,-0.26987 -0.38578,-0.11712 -0.75699,-0.25929 -1.11325,-0.42439 z"
       style="fill:#efebff;fill-opacity:1;fill-rule:nonzero;stroke:none;stroke-width:0.345975"
       id="path98" />
    <path
       d="m -151.0228,131.43736 v 1.90711 h -3.7588 v 11.47057 h -2.49692 v -11.47057 h -3.79068 v -1.90711 z"
       style="fill:#efebff;fill-opacity:1;fill-rule:nonzero;stroke:none;stroke-width:0.345975"
       id="path100" />
    <path
       d="m -128.21797,131.43736 1.4685,13.37768 h -2.44942 l -1.05488,-9.95468 h -0.0585 l -2.7619,9.99878 h -2.75683 l -2.76228,-9.99878 h -0.0529 l -1.05524,9.95468 h -2.4545 l 1.4685,-13.37768 h 3.27631 l 2.95837,10.72656 2.96346,-10.72656 z"
       style="fill:#efebff;fill-opacity:1;fill-rule:nonzero;stroke:none;stroke-width:0.345975"
       id="path102" />
    <path
       d="m -109.35616,131.43736 v 1.90711 h -5.19574 v 3.03178 h 3.6794 v 1.90711 h -3.6794 v 4.62457 h 5.38644 v 1.90711 h -7.88336 v -13.37768 z"
       style="fill:#efebff;fill-opacity:1;fill-rule:nonzero;stroke:none;stroke-width:0.345975"
       id="path104" />
    <path
       d="m -88.123292,131.43736 v 13.37768 h -2.767354 l -5.624949,-9.99878 v 9.99878 h -2.497271 v -13.37768 h 2.767699 l 5.624951,9.99878 v -9.99878 z"
       style="fill:#efebff;fill-opacity:1;fill-rule:nonzero;stroke:none;stroke-width:0.345975"
       id="path106" />
    <path
       d="m -68.251725,131.43736 v 1.90711 h -3.758788 v 11.47057 h -2.496922 v -11.47057 h -3.790691 v -1.90711 z"
       style="fill:#efebff;fill-opacity:1;fill-rule:nonzero;stroke:none;stroke-width:0.345975"
       id="path108" />
    <path
       d="m -31.484944,131.44829 -1.468501,13.36675 h -3.271211 l -2.963463,-10.71562 -2.958376,10.71562 h -3.276308 l -1.468499,-13.36675 h 2.454519 l 1.054884,10.03759 h 0.01597 l 2.772777,-10.03759 h 2.809767 l 2.772778,10.03759 h 0.02133 l 1.054896,-10.03759 z"
       style="fill:#efebff;fill-opacity:1;fill-rule:nonzero;stroke:none;stroke-width:0.345975"
       id="path110" />
    <path
       d="m -21.588183,131.43736 h 2.496923 v 13.37804 h -2.496923 z"
       style="fill:#efebff;fill-opacity:1;fill-rule:nonzero;stroke:none;stroke-width:0.345975"
       id="path112" />
    <path
       d="m 0.97540823,131.43736 v 1.90711 H -2.7833785 v 11.47057 H -5.280638 v -11.47057 h -3.7906896 v -1.90711 z"
       style="fill:#efebff;fill-opacity:1;fill-rule:nonzero;stroke:none;stroke-width:0.345975"
       id="path114" />
    <path
       d="m 21.50048,131.43736 v 13.37768 h -2.496934 v -6.52074 h -5.688738 v 6.52074 h -2.496923 v -13.37768 h 2.496923 v 4.94982 h 5.688738 v -4.94982 z"
       style="fill:#efebff;fill-opacity:1;fill-rule:nonzero;stroke:none;stroke-width:0.345975"
       id="path116" />
    <path
       d="m 53.849543,144.44039 c -0.530329,0.18063 -1.113257,0.32526 -1.749442,0.43533 -0.636192,0.11042 -1.281887,0.16545 -1.935384,0.16545 -1.117324,0 -2.062275,-0.13511 -2.836226,-0.40252 -0.771231,-0.27128 -1.398258,-0.68474 -1.882111,-1.24001 -0.481121,-0.55421 -0.829592,-1.25271 -1.044373,-2.09479 -0.216136,-0.84067 -0.323347,-1.83127 -0.323347,-2.9711 0,-1.19062 0.105856,-2.22814 0.317924,-3.11432 0.212066,-0.88865 0.54763,-1.62736 1.00739,-2.2158 0.45873,-0.58702 1.051152,-1.02799 1.776245,-1.32291 0.72339,-0.29775 1.602188,-0.44662 2.634683,-0.44662 0.363051,0 0.722369,0.0194 1.076265,0.0554 0.356606,0.037 0.694553,0.0868 1.012479,0.14887 0.318259,0.0632 0.615148,0.13476 0.890665,0.21484 0.278567,0.0811 0.526259,0.16545 0.742396,0.25365 l -0.593777,1.86866 c -0.421414,-0.16122 -0.872008,-0.30339 -1.351784,-0.42474 -0.481131,-0.12101 -0.986356,-0.18168 -1.516338,-0.18168 -0.640271,0 -1.181111,0.0991 -1.622203,0.29774 -0.442795,0.19826 -0.799401,0.50024 -1.071177,0.90382 -0.269073,0.40534 -0.46383,0.91369 -0.582928,1.52682 -0.120793,0.61454 -0.180502,1.33279 -0.180502,2.15547 0,0.88195 0.06511,1.64112 0.196113,2.27648 0.134025,0.63641 0.346084,1.16028 0.636192,1.57092 0.293156,0.41204 0.676232,0.71508 1.150574,0.90946 0.473321,0.19579 1.051152,0.2921 1.733493,0.2921 0.515738,0 1.035216,-0.0498 1.558753,-0.14888 0.52219,-0.0991 1.007391,-0.22577 1.45255,-0.38029 z"
       style="fill:#efebff;fill-opacity:1;fill-rule:nonzero;stroke:none;stroke-width:0.345975"
       id="path118" />
    <path
       d="m 68.871466,131.2331 c 1.073551,0 1.980165,0.16969 2.719849,0.50729 0.738318,0.33902 1.338539,0.81316 1.802367,1.42205 0.46281,0.60643 0.795324,1.33385 0.996869,2.18299 0.20392,0.84596 0.307411,1.77483 0.307411,2.78906 0,1.01847 -0.103491,1.95122 -0.307411,2.8 -0.201545,0.84631 -0.534059,1.57374 -0.996869,2.18299 -0.463828,0.60642 -1.064049,1.07914 -1.802367,1.41675 -0.739684,0.33761 -1.646298,0.50694 -2.719849,0.50694 -1.057607,0 -1.954717,-0.16404 -2.693045,-0.49071 -0.739673,-0.33055 -1.339904,-0.79622 -1.802712,-1.39982 -0.46382,-0.60219 -0.800412,-1.32856 -1.01248,-2.17735 -0.209345,-0.84878 -0.312835,-1.79422 -0.312835,-2.8388 0,-1.03893 0.10349,-1.98437 0.312835,-2.83316 0.212068,-0.8516 0.54866,-1.57797 1.01248,-2.17734 0.462808,-0.60219 1.063039,-1.0668 1.802712,-1.39453 0.738328,-0.33091 1.635438,-0.49636 2.693045,-0.49636 z m 0,1.90747 c -0.625672,0 -1.148881,0.10724 -1.569275,0.31962 -0.421414,0.20955 -0.757997,0.52352 -1.01248,0.94262 -0.25176,0.41875 -0.432271,0.94121 -0.540849,1.56527 -0.105856,0.6216 -0.15913,1.34373 -0.15913,2.16641 0,0.82691 0.05329,1.55293 0.15913,2.17735 0.108578,0.62159 0.289089,1.14088 0.540849,1.55998 0.254483,0.41875 0.591066,0.73589 1.01248,0.94791 0.420394,0.20955 0.943603,0.31433 1.569275,0.31433 0.621603,0 1.142427,-0.10478 1.564177,-0.31433 0.420058,-0.20955 0.755294,-0.5207 1.007055,-0.93697 0.254473,-0.41487 0.43634,-0.93416 0.546274,-1.55999 0.108577,-0.6283 0.164227,-1.35749 0.164227,-2.18828 0,-0.82973 -0.05569,-1.55716 -0.164227,-2.18299 -0.109934,-0.62829 -0.291801,-1.14899 -0.546274,-1.56527 -0.251761,-0.41487 -0.586997,-0.72496 -1.007055,-0.93169 -0.42175,-0.2092 -0.942574,-0.31397 -1.564177,-0.31397 z"
       style="fill:#efebff;fill-opacity:1;fill-rule:nonzero;stroke:none;stroke-width:0.345975"
       id="path120" />
    <path
       d="m 95.687162,131.43736 v 13.37768 h -2.767685 l -5.624928,-9.99878 v 9.99878 h -2.496924 v -13.37768 h 2.767353 l 5.624926,9.99878 v -9.99878 z"
       style="fill:#efebff;fill-opacity:1;fill-rule:nonzero;stroke:none;stroke-width:0.345975"
       id="path122" />
    <path
       d="m 114.02645,131.43736 v 1.90711 h -5.19539 v 3.03178 h 3.6794 v 1.90711 h -3.6794 v 6.53168 h -2.49727 v -13.37768 z"
       style="fill:#efebff;fill-opacity:1;fill-rule:nonzero;stroke:none;stroke-width:0.345975"
       id="path124" />
    <path
       d="m 123.98023,131.43736 h 2.49693 v 13.37804 h -2.49693 z"
       style="fill:#efebff;fill-opacity:1;fill-rule:nonzero;stroke:none;stroke-width:0.345975"
       id="path126" />
    <path
       d="m 140.8035,131.43736 c 0.7027,0 1.35214,0.0413 1.94591,0.121 0.59616,0.0773 1.14649,0.21237 1.64866,0.40252 0.58969,0.2286 1.08406,0.5334 1.48444,0.91511 0.39903,0.38311 0.71695,0.83502 0.95447,1.35572 0.23987,0.51823 0.41055,1.10243 0.51403,1.75295 0.10213,0.6477 0.15372,1.34903 0.15372,2.10573 0,0.75777 -0.0528,1.46086 -0.1588,2.11103 -0.1062,0.65052 -0.28129,1.23895 -0.5249,1.76388 -0.24396,0.52247 -0.5646,0.97861 -0.95989,1.36702 -0.39596,0.38594 -0.88389,0.69744 -1.46307,0.93168 -0.50217,0.19827 -1.0525,0.34044 -1.64866,0.4244 -0.59377,0.0854 -1.24321,0.12664 -1.94591,0.12664 h -3.4938 v -13.37768 z m -0.63077,11.48715 c 0.98602,0 1.7878,-0.073 2.40703,-0.22049 0.6216,-0.15028 1.1078,-0.40781 1.45797,-0.77152 0.35254,-0.36654 0.5948,-0.85584 0.72611,-1.4665 0.12995,-0.60889 0.19611,-1.37936 0.19611,-2.30964 0,-0.92851 -0.0636,-1.70462 -0.1907,-2.32586 -0.12722,-0.62018 -0.35523,-1.11478 -0.68402,-1.48273 -0.32877,-0.37076 -0.77396,-0.63394 -1.33582,-0.78845 -0.55951,-0.15417 -1.26731,-0.23143 -2.12607,-0.23143 h -0.80585 v 9.59662 z"
       style="fill:#efebff;fill-opacity:1;fill-rule:nonzero;stroke:none;stroke-width:0.345975"
       id="path128" />
    <path
       d="m 165.15794,131.43736 v 1.90711 h -5.19575 v 3.03178 h 3.67939 v 1.90711 h -3.67939 v 4.62457 h 5.38641 v 1.90711 h -7.88333 v -13.37768 z"
       style="fill:#efebff;fill-opacity:1;fill-rule:nonzero;stroke:none;stroke-width:0.345975"
       id="path130" />
    <path
       d="m 186.38941,131.43736 v 13.37768 h -2.76733 l -5.62529,-9.99878 v 9.99878 h -2.49692 v -13.37768 h 2.76734 l 5.62494,9.99878 v -9.99878 z"
       style="fill:#efebff;fill-opacity:1;fill-rule:nonzero;stroke:none;stroke-width:0.345975"
       id="path132" />
    <path
       d="m 206.20805,144.44039 c -0.53033,0.18063 -1.11324,0.32526 -1.74943,0.43533 -0.6362,0.11042 -1.28186,0.16545 -1.93504,0.16545 -1.11732,0 -2.06263,-0.13511 -2.83657,-0.40252 -0.77124,-0.27128 -1.39827,-0.68474 -1.88211,-1.24001 -0.48113,-0.55421 -0.82959,-1.25271 -1.04437,-2.09479 -0.2158,-0.84067 -0.32335,-1.83127 -0.32335,-2.9711 0,-1.19062 0.1062,-2.22814 0.31827,-3.11432 0.21205,-0.88865 0.54728,-1.62736 1.00704,-2.2158 0.45874,-0.58702 1.05116,-1.02799 1.77626,-1.32291 0.72372,-0.29775 1.60217,-0.44662 2.63466,-0.44662 0.3634,0 0.7224,0.0194 1.07629,0.0554 0.35658,0.037 0.69454,0.0868 1.0128,0.14887 0.31791,0.0632 0.61482,0.13476 0.89067,0.21484 0.27824,0.0811 0.52593,0.16545 0.74205,0.25365 l -0.59378,1.86866 c -0.42141,-0.16122 -0.87201,-0.30339 -1.35177,-0.42474 -0.48113,-0.12101 -0.98636,-0.18168 -1.51634,-0.18168 -0.64026,0 -1.18111,0.0991 -1.62222,0.29774 -0.44277,0.19826 -0.79938,0.50024 -1.07117,0.90382 -0.26906,0.40534 -0.46383,0.91369 -0.58292,1.52682 -0.12077,0.61454 -0.1805,1.33279 -0.1805,2.15547 0,0.88195 0.065,1.64112 0.19645,2.27648 0.13368,0.63641 0.34576,1.16028 0.63619,1.57092 0.29282,0.41204 0.6759,0.71508 1.15024,0.90946 0.47331,0.19579 1.05116,0.2921 1.73384,0.2921 0.5154,0 1.03486,-0.0498 1.55841,-0.14888 0.52217,-0.0991 1.00738,-0.22577 1.45288,-0.38029 z"
       style="fill:#efebff;fill-opacity:1;fill-rule:nonzero;stroke:none;stroke-width:0.345975"
       id="path134" />
    <path
       d="m 223.65159,131.43736 v 1.90711 h -5.1954 v 3.03178 h 3.67906 v 1.90711 h -3.67906 v 4.62457 h 5.38641 v 1.90711 h -7.88366 v -13.37768 z"
       style="fill:#efebff;fill-opacity:1;fill-rule:nonzero;stroke:none;stroke-width:0.345975"
       id="path136" />
  </g>
</svg>
